<svg xmlns="http://www.w3.org/2000/svg" width="24" height="24" viewBox="0 0 24 24"><defs><style>.a,.b{fill:#5640ff;}.a{opacity:0;}</style></defs><rect class="a" width="24" height="24"/><path class="b" d="M17.4,22A15.42,15.42,0,0,1,2,6.6,4.6,4.6,0,0,1,6.6,2a3.94,3.94,0,0,1,.77.07,3.79,3.79,0,0,1,.72.18A1,1,0,0,1,8.74,3l1.37,6a1,1,0,0,1-.26.92c-.13.14-.14.15-1.37.79a9.91,9.91,0,0,0,4.87,4.89c.65-1.24.66-1.25.8-1.38a1,1,0,0,1,.92-.26l6,1.37a1,1,0,0,1,.72.65,4.34,4.34,0,0,1,.19.73,4.77,4.77,0,0,1,.06.76A4.6,4.6,0,0,1,17.4,22ZM6.6,4A2.61,2.61,0,0,0,4,6.6,13.41,13.41,0,0,0,17.4,20,2.61,2.61,0,0,0,20,17.4v-.33L15.36,16l-.29.55c-.45.87-.78,1.5-1.62,1.16A11.85,11.85,0,0,1,6.27,10.5c-.36-.78.32-1.14,1.18-1.59L8,8.64,6.93,4Z"/></svg>